<svg width="930" height="98" viewBox="0 0 930 98" fill="none" xmlns="http://www.w3.org/2000/svg">
<path d="M147.31 78V53.81H126.06V78H115.22V20.7H126.06V44.27H147.31V20.7H158.15V78H147.31Z" fill="black"/>
<path d="M197.8 78H189.2L188.42 75.17C184.719 77.5629 180.407 78.8372 176 78.84C168.35 78.84 165.08 73.6 165.08 66.37C165.08 57.86 168.78 54.59 177.29 54.59H187.36V50.2C187.36 45.56 186.07 43.92 179.36 43.92C175.453 43.9637 171.561 44.3958 167.74 45.21L166.45 37.21C171.13 35.9102 175.963 35.2377 180.82 35.21C193.98 35.21 197.82 39.86 197.82 50.35L197.8 78ZM187.31 62.16H179.56C176.12 62.16 175.18 63.1 175.18 66.29C175.18 69.21 176.12 70.5 179.39 70.5C182.169 70.4613 184.893 69.7218 187.31 68.35V62.16Z" fill="black"/>
<path d="M218.1 78.84C213.191 78.7597 208.321 77.9509 203.65 76.44L205.11 68.44C209.167 69.5969 213.361 70.2024 217.58 70.24C222.23 70.24 222.92 69.24 222.92 66.03C222.92 63.45 222.4 62.16 215.61 60.52C205.37 58.03 204.17 55.45 204.17 47.36C204.17 38.93 207.86 35.23 219.82 35.23C224.049 35.2348 228.264 35.728 232.38 36.7L231.38 45.04C227.574 44.3397 223.719 43.9385 219.85 43.84C215.29 43.84 214.52 44.84 214.52 47.45C214.52 50.8 214.78 51.06 220.45 52.52C232.15 55.62 233.27 57.17 233.27 65.77C233.24 73.86 230.74 78.84 218.1 78.84Z" fill="black"/>
<path d="M264.46 78V48.74C264.46 46.5 263.52 45.38 261.11 45.38C258.53 45.38 253.97 46.93 250.18 48.91V78H239.69V19L250.18 17.54V39.28C254.938 36.8568 260.165 35.4923 265.5 35.28C272.5 35.28 274.96 40.19 274.96 47.67V78H264.46Z" fill="black"/>
<path d="M282.7 30.16V18H293.19V30.16H282.7ZM282.7 77.98V36.09H293.19V78L282.7 77.98Z" fill="black"/>
<path d="M300.5 36.44C300.5 25.94 306.61 19.84 320.89 19.84C326.137 19.8402 331.365 20.4748 336.46 21.73L335.25 31.11C330.632 30.2312 325.949 29.7395 321.25 29.64C313.77 29.64 311.36 32.22 311.36 38.33V60.33C311.36 66.44 313.77 69.02 321.25 69.02C325.949 68.9241 330.632 68.4357 335.25 67.56L336.46 76.93C331.366 78.19 326.138 78.8247 320.89 78.82C306.61 78.82 300.5 72.72 300.5 62.22V36.44Z" fill="black"/>
<path d="M358 78.84C343.64 78.84 339.77 70.93 339.77 62.33V51.75C339.77 43.15 343.64 35.23 358 35.23C372.36 35.23 376.24 43.15 376.24 51.75V62.33C376.2 70.93 372.33 78.84 358 78.84ZM358 44.18C352.41 44.18 350.26 46.67 350.26 51.41V62.67C350.26 67.4 352.41 69.9 358 69.9C363.59 69.9 365.74 67.4 365.74 62.67V51.41C365.7 46.67 363.55 44.18 358 44.18Z" fill="black"/>
<path d="M404.07 44.87C400.227 46.6245 396.526 48.674 393 51V78H382.48V36.09H391.34L392.03 40.74C394.35 39.19 399.34 36.27 403.03 35.23L404.07 44.87Z" fill="black"/>
<path d="M443.86 64.05C443.86 73.34 439.73 78.84 430.01 78.84C426.253 78.8051 422.509 78.4031 418.83 77.64V94.93L408.33 96.39V36.09H416.68L417.68 39.62C421.522 36.7427 426.2 35.201 431 35.23C439.43 35.23 443.91 40.23 443.91 49.77L443.86 64.05ZM418.86 68.78C421.911 69.4636 425.024 69.8388 428.15 69.9C431.93 69.9 433.39 68.09 433.39 64.31V49.51C433.39 46.07 432.1 44.18 428.23 44.18C424.745 44.3085 421.417 45.661 418.83 48L418.86 68.78Z" fill="black"/>
<path d="M38.68 0.330002L0.359985 22.43V22.45V75.53L14.76 83.85V30.75L38.68 16.93V0.330002Z" fill="black"/>
<path d="M53.98 0.330002V42.62H38.68V26.83L24.28 35.14V89.33L38.68 97.66V55.49H53.98V71.17L68.38 62.86V8.64L53.98 0.330002Z" fill="black"/>
<path d="M53.98 97.67L92.3 75.57V75.55V22.47L77.9 14.15V67.25L53.98 81.07V97.67Z" fill="black"/>
<path d="M472.56 62C472.56 69.79 475.56 72.3 484.71 72.3C489.087 72.2429 493.453 71.8518 497.77 71.13V71.13L498.52 77.33C493.89 78.2876 489.178 78.79 484.45 78.83C470.81 78.83 465.36 72.97 465.36 62.42V37.75C465.36 27.2 470.81 21.34 484.45 21.34C489.178 21.375 493.891 21.8774 498.52 22.84L497.77 29.04C493.453 28.3182 489.087 27.9271 484.71 27.87C475.58 27.87 472.56 30.38 472.56 38.17V62Z" fill="black"/>
<path d="M506.82 77.94V20.5L513.82 19.5V77.95L506.82 77.94Z" fill="black"/>
<path d="M538.8 78.78C526.91 78.78 522.22 72 522.22 63.46V51.65C522.22 43.11 526.91 36.33 538.8 36.33C550.69 36.33 555.38 43.11 555.38 51.65V63.46C555.38 72 550.69 78.78 538.8 78.78ZM538.8 42.44C532.44 42.44 529.26 45.44 529.26 51.44V63.71C529.26 69.65 532.44 72.71 538.8 72.71C545.16 72.71 548.35 69.71 548.35 63.71V51.4C548.35 45.45 545.17 42.44 538.8 42.44Z" fill="black"/>
<path d="M570.38 37.16V68.31C570.38 70.99 571.72 72.08 574.31 72.08C577.31 72.08 583.61 70.24 587.96 67.98V37.16H594.96V77.94H589.26L588.59 74.43C584.07 76.6 577.04 78.78 572.18 78.78C565.65 78.78 563.3 74.68 563.3 68.4V37.16H570.38Z" fill="black"/>
<path d="M603.21 49.64C603.21 41.52 606.89 36.33 616.44 36.33C620.35 36.3971 624.245 36.8154 628.08 37.58V20.5L635.08 19.5V77.95H629.08L628.5 74.27C624.641 77.2463 619.893 78.8383 615.02 78.79C607.02 78.79 603.13 74.52 603.13 66.31L603.21 49.64ZM628.08 43.78C624.383 43.0406 620.629 42.619 616.86 42.52C612.17 42.52 610.24 44.7 610.24 49.64V66.3C610.24 70.49 611.58 72.59 616.52 72.59C620.52 72.59 625.06 70.41 628.08 67.73V43.78Z" fill="black"/>
<path d="M659 22.17H679.2C691.2 22.17 695.37 27.37 695.37 35.91V44.2C695.37 52.82 691.18 58.01 679.2 58.01H666.2V77.94H659V22.17ZM679 28.62H666.22V51.57H679C685.87 51.57 688.21 49.64 688.21 44.2V36C688.16 30.46 685.82 28.62 679 28.62Z" fill="black"/>
<path d="M702.32 77.94V20.5L709.32 19.5V77.95L702.32 77.94Z" fill="black"/>
<path d="M747.83 77.8H741.83L741.42 74.8C737.499 77.3967 732.882 78.7426 728.18 78.66C720.57 78.66 717.38 74.13 717.38 66.93C717.38 58.47 721.65 55.46 729.86 55.46H740.8V49.08C740.8 43.97 738.53 42.21 731.92 42.21C727.811 42.2835 723.717 42.732 719.69 43.55L718.94 37.94C723.321 36.8258 727.819 36.235 732.34 36.18C743.98 36.18 747.83 40.7 747.83 49.41V77.8ZM740.83 61.3H730.41C726.06 61.3 724.47 62.64 724.47 66.74C724.47 70.84 725.22 72.61 730.24 72.61C734.002 72.4883 737.656 71.3289 740.8 69.26L740.83 61.3Z" fill="black"/>
<path d="M778.56 77.28C775.819 78.2616 772.931 78.7688 770.02 78.78C763.16 78.78 759.89 76.27 759.89 69.49V43H752.69V37.16H759.89V27.16L766.89 26.16V37.16H778.11L777.55 43H766.92V68.31C766.92 71.31 767.34 72.84 771.11 72.84C773.32 72.7873 775.515 72.4512 777.64 71.84L778.56 77.28Z" fill="black"/>
<path d="M807.54 25.44C805.304 25.006 803.037 24.7551 800.76 24.69C796.4 24.69 795.31 26.19 795.31 30.3V37.16H807L806.37 43H795.31V77.91H788.31V43H781.11L781.69 37.13H788.31V29.63C788.31 22.43 792.31 18.82 799.86 18.82C802.656 18.808 805.439 19.2055 808.12 20V20L807.54 25.44Z" fill="black"/>
<path d="M825.55 78.78C813.65 78.78 808.97 72 808.97 63.46V51.65C808.97 43.11 813.65 36.33 825.55 36.33C837.45 36.33 842.13 43.11 842.13 51.65V63.46C842.13 72 837.44 78.78 825.55 78.78ZM825.55 42.44C819.18 42.44 816 45.44 816 51.44V63.71C816 69.65 819.18 72.71 825.55 72.71C831.92 72.71 835.09 69.71 835.09 63.71V51.4C835.09 45.45 831.91 42.44 825.55 42.44Z" fill="black"/>
<path d="M869.18 42.77C865.129 44.8068 861.238 47.1468 857.54 49.77V77.9H850.54V37.16H856.66L857.07 42.86C860.524 40.2202 864.297 38.0262 868.3 36.33V36.33L869.22 42.77H869.18Z" fill="black"/>
<path d="M922.61 77.94V46.79C922.61 44.11 921.27 43.03 918.67 43.03C915.32 43.03 909.37 44.87 905.02 47.13V77.94H898.02V46.79C898.02 44.11 896.68 43.03 894.08 43.03C891.08 43.03 884.79 44.87 880.43 47.13V77.94H873.43V37.16H879.12L879.79 40.68C884.31 38.5 891.35 36.33 896.2 36.33C900.39 36.33 902.82 37.92 903.99 40.68C908.85 38.34 915.72 36.33 920.82 36.33C927.36 36.33 929.7 40.43 929.7 46.71V77.94H922.61Z" fill="black"/>
</svg>
