<svg id="Logo" xmlns="http://www.w3.org/2000/svg" viewBox="0 0 1000 158"><path d="M182.31,108V83.81H161.06V108H150.22V50.7h10.84V74.27h21.25V50.7h10.84V108Z"/><path d="M232.8,108h-8.6l-.78-2.83A22.9,22.9,0,0,1,211,108.84c-7.65,0-10.92-5.24-10.92-12.47,0-8.51,3.7-11.78,12.21-11.78h10.07V80.2c0-4.64-1.29-6.28-8-6.28a58.92,58.92,0,0,0-11.62,1.29l-1.29-8a54.87,54.87,0,0,1,14.37-2c13.16,0,17,4.65,17,15.14ZM222.31,92.16h-7.75c-3.44,0-4.38.94-4.38,4.13,0,2.92.94,4.21,4.21,4.21a16.51,16.51,0,0,0,7.92-2.15Z"/><path d="M253.1,108.84a49.59,49.59,0,0,1-14.45-2.4l1.46-8a47,47,0,0,0,12.47,1.8c4.65,0,5.34-1,5.34-4.21,0-2.58-.52-3.87-7.31-5.51-10.24-2.49-11.44-5.07-11.44-13.16,0-8.43,3.69-12.13,15.65-12.13a54.92,54.92,0,0,1,12.56,1.47l-1,8.34a74.15,74.15,0,0,0-11.53-1.2c-4.56,0-5.33,1-5.33,3.61,0,3.35.26,3.61,5.93,5.07,11.7,3.1,12.82,4.65,12.82,13.25C268.24,103.86,265.74,108.84,253.1,108.84Z"/><path d="M299.46,108V78.74c0-2.24-.94-3.36-3.35-3.36-2.58,0-7.14,1.55-10.93,3.53V108H274.69V49l10.49-1.46V69.28a37,37,0,0,1,15.32-4c7,0,9.46,4.91,9.46,12.39V108Z"/><path d="M317.7,60.16V48h10.49V60.16Zm0,47.82V66.09h10.49V108Z"/><path d="M335.5,66.44c0-10.5,6.11-16.6,20.39-16.6a65.1,65.1,0,0,1,15.57,1.89l-1.21,9.38a84.45,84.45,0,0,0-14-1.47c-7.48,0-9.89,2.58-9.89,8.69v22c0,6.11,2.41,8.69,9.89,8.69a84.38,84.38,0,0,0,14-1.46l1.21,9.37a64.6,64.6,0,0,1-15.57,1.89c-14.28,0-20.39-6.1-20.39-16.6Z"/><path d="M393,108.84c-14.36,0-18.23-7.91-18.23-16.51V81.75c0-8.6,3.87-16.52,18.23-16.52s18.24,7.92,18.24,16.52V92.33C411.2,100.93,407.33,108.84,393,108.84Zm0-34.66c-5.59,0-7.74,2.49-7.74,7.23V92.67c0,4.73,2.15,7.23,7.74,7.23s7.74-2.5,7.74-7.23V81.41C400.7,76.67,398.55,74.18,393,74.18Z"/><path d="M439.07,74.87A81.83,81.83,0,0,0,428,81v27H417.48V66.09h8.86l.69,4.65c2.32-1.55,7.31-4.47,11-5.51Z"/><path d="M478.86,94.05c0,9.29-4.13,14.79-13.85,14.79a57.68,57.68,0,0,1-11.18-1.2v17.29l-10.5,1.46V66.09h8.35l1,3.53A22,22,0,0,1,466,65.23c8.43,0,12.91,5,12.91,14.54Zm-25,4.73a46.67,46.67,0,0,0,9.29,1.12c3.78,0,5.24-1.81,5.24-5.59V79.51c0-3.44-1.29-5.33-5.16-5.33A14.83,14.83,0,0,0,453.83,78Z"/><polygon points="73.68 30.33 35.36 52.43 35.36 52.45 35.36 105.53 49.76 113.85 49.76 60.75 73.68 46.93 73.68 30.33"/><polygon points="88.98 30.33 88.98 72.62 73.68 72.62 73.68 56.83 59.28 65.14 59.28 119.33 73.68 127.66 73.68 85.49 88.98 85.49 88.98 101.17 103.38 92.86 103.38 38.64 88.98 30.33"/><polygon points="88.98 127.67 127.3 105.57 127.3 105.55 127.3 52.47 112.9 44.15 112.9 97.25 88.98 111.07 88.98 127.67"/><path d="M507.56,92c0,7.79,3,10.3,12.15,10.3a86,86,0,0,0,13.06-1.17h0l.75,6.2a72.49,72.49,0,0,1-14.07,1.5c-13.64,0-19.09-5.86-19.09-16.41V67.75c0-10.55,5.45-16.41,19.09-16.41a71.72,71.72,0,0,1,14.07,1.5l-.75,6.2h0a86,86,0,0,0-13.06-1.17c-9.13,0-12.15,2.51-12.15,10.3Z"/><path d="M541.82,107.94V50.5l7-1v58.45Z"/><path d="M573.8,108.78c-11.89,0-16.58-6.78-16.58-15.32V81.65c0-8.54,4.69-15.32,16.58-15.32s16.58,6.78,16.58,15.32V93.46C590.38,102,585.69,108.78,573.8,108.78Zm0-36.34c-6.36,0-9.54,3-9.54,9V93.71c0,5.94,3.18,9,9.54,9s9.55-3,9.55-9V81.4C583.35,75.45,580.17,72.44,573.8,72.44Z"/><path d="M605.38,67.16V98.31c0,2.68,1.34,3.77,3.93,3.77,3,0,9.3-1.84,13.65-4.1h0V67.16h7v40.78h-5.7l-.67-3.51c-4.52,2.17-11.55,4.35-16.41,4.35-6.53,0-8.88-4.1-8.88-10.38V67.16Z"/><path d="M638.21,79.64c0-8.12,3.68-13.31,13.23-13.31a65.25,65.25,0,0,1,11.64,1.25V50.5l7-1v58.45h-6l-.58-3.68a21.72,21.72,0,0,1-13.48,4.52c-8,0-11.89-4.27-11.89-12.48Zm24.87-5.86h0a66.06,66.06,0,0,0-11.22-1.26c-4.69,0-6.62,2.18-6.62,7.12V96.3c0,4.19,1.34,6.29,6.28,6.29,4,0,8.54-2.18,11.56-4.86h0Z"/><path d="M694,52.17H714.2c12,0,16.17,5.2,16.17,13.74V74.2c0,8.62-4.19,13.81-16.17,13.81h-13v19.93H694ZM714,58.62H701.22V81.57H714c6.87,0,9.21-1.93,9.21-7.37V66C723.16,60.46,720.82,58.62,714,58.62Z"/><path d="M737.32,107.94V50.5l7-1v58.45Z"/><path d="M782.83,107.8h-6l-.41-3a23.24,23.24,0,0,1-13.24,3.86c-7.61,0-10.8-4.53-10.8-11.73,0-8.46,4.27-11.47,12.48-11.47H775.8V79.08c0-5.11-2.27-6.87-8.88-6.87a67.51,67.51,0,0,0-12.23,1.34l-.75-5.61h0a57.19,57.19,0,0,1,13.4-1.76c11.64,0,15.49,4.52,15.49,13.23Zm-7-16.5H765.41c-4.35,0-5.94,1.34-5.94,5.44s.75,5.87,5.77,5.87a20.41,20.41,0,0,0,10.56-3.35Z"/><path d="M813.56,107.28h0a25.62,25.62,0,0,1-8.54,1.5c-6.86,0-10.13-2.51-10.13-9.29V73h-7.2V67.16h7.2v-10l7-1v11h11.22L812.55,73H801.92V98.31c0,3,.42,4.53,4.19,4.53a25.85,25.85,0,0,0,6.53-1Z"/><path d="M842.54,55.44a41.86,41.86,0,0,0-6.78-.75c-4.36,0-5.45,1.5-5.45,5.61v6.86H842L841.37,73H830.31v34.91h-7V73h-7.2l.58-5.87h6.62V59.63c0-7.2,4-10.81,11.55-10.81A28.64,28.64,0,0,1,843.12,50h0Z"/><path d="M860.55,108.78c-11.9,0-16.58-6.78-16.58-15.32V81.65c0-8.54,4.68-15.32,16.58-15.32s16.58,6.78,16.58,15.32V93.46C877.13,102,872.44,108.78,860.55,108.78Zm0-36.34c-6.37,0-9.55,3-9.55,9V93.71c0,5.94,3.18,9,9.55,9s9.54-3,9.54-9V81.4C870.09,75.45,866.91,72.44,860.55,72.44Z"/><path d="M904.18,72.77a90,90,0,0,0-11.64,7v28.13h-7V67.16h6.12l.41,5.7a51.74,51.74,0,0,1,11.23-6.53h0l.92,6.44Z"/><path d="M957.61,107.94V76.79c0-2.68-1.34-3.76-3.94-3.76-3.35,0-9.3,1.84-13.65,4.1h0v30.81h-7V76.79c0-2.68-1.34-3.76-3.94-3.76-3,0-9.29,1.84-13.65,4.1h0v30.81h-7V67.16h5.69l.67,3.52c4.52-2.18,11.56-4.35,16.41-4.35,4.19,0,6.62,1.59,7.79,4.35,4.86-2.34,11.73-4.35,16.83-4.35,6.54,0,8.88,4.1,8.88,10.38v31.23Z"/></svg>